<svg xmlns="http://www.w3.org/2000/svg" viewBox="0 0 980 276.31"><defs><style>.cls-1,.cls-2{fill:#fff;}.cls-1,.cls-3,.cls-4,.cls-5,.cls-6{stroke:#000;stroke-miterlimit:10;stroke-width:2px;}.cls-2{opacity:0.58;}.cls-3,.cls-4{fill:none;}.cls-4{stroke-dasharray:12.09 12.09;}.cls-5{fill:olive;}.cls-6{fill:#ff0;}</style></defs><g id="Layer_2" data-name="Layer 2"><g id="Layer_1-2" data-name="Layer 1"><polygon class="cls-1" points="929 155.83 929 38.83 979 113.83 979 230.83 929 155.83"/><polygon class="cls-1" points="894 154.07 894 37.07 944 112.07 944 229.07 894 154.07"/><polygon class="cls-1" points="861 154.07 861 37.07 911 112.07 911 229.07 861 154.07"/><polygon class="cls-1" points="828 155.07 828 38.07 878 113.07 878 230.07 828 155.07"/><polygon class="cls-1" points="796 157.19 796 40.19 846 115.19 846 232.19 796 157.19"/><polygon class="cls-1" points="762 155.19 762 38.19 812 113.19 812 230.19 762 155.19"/><polygon class="cls-1" points="730 156.19 730 39.19 780 114.19 780 231.19 730 156.19"/><polygon class="cls-2" points="713.68 167.95 713.68 4.06 783.72 109.12 783.72 273 713.68 167.95"/><polyline class="cls-3" points="713.68 10.06 713.68 4.06 717.01 9.06"/><polyline class="cls-4" points="723.72 19.12 783.72 109.12 783.72 260.96"/><polyline class="cls-3" points="783.72 267 783.72 273 780.39 268.01"/><polyline class="cls-4" points="773.68 257.95 713.68 167.95 713.68 16.11"/><polygon class="cls-1" points="696 156.19 696 39.19 746 114.19 746 231.19 696 156.19"/><polygon class="cls-1" points="662 155.19 662 38.19 712 113.19 712 230.19 662 155.19"/><polygon class="cls-1" points="629 155.19 629 38.19 679 113.19 679 230.19 629 155.19"/><polygon class="cls-1" points="596 155.19 596 38.19 646 113.19 646 230.19 596 155.19"/><polygon class="cls-1" points="564 156.19 564 39.19 614 114.19 614 231.19 564 156.19"/><polygon class="cls-5" points="531 156.19 531 39.19 581 114.19 581 231.19 531 156.19"/><polygon class="cls-6" points="497 155.19 497 38.19 547 113.19 547 230.19 497 155.19"/><polygon class="cls-5" points="465 158.19 465 41.19 515 116.19 515 233.19 465 158.19"/><polygon class="cls-1" points="431 156.19 431 39.19 481 114.19 481 231.19 431 156.19"/><polygon class="cls-1" points="398 155.19 398 38.19 448 113.19 448 230.19 398 155.19"/><polygon class="cls-1" points="365 155.19 365 38.19 415 113.19 415 230.19 365 155.19"/><polygon class="cls-1" points="332 155.19 332 38.19 382 113.19 382 230.19 332 155.19"/><polygon class="cls-1" points="299 155.19 299 38.19 349 113.19 349 230.19 299 155.19"/><polygon class="cls-1" points="266 155.19 266 38.19 316 113.19 316 230.19 266 155.19"/><polygon class="cls-2" points="250.16 167.19 250.16 3.3 320.19 108.36 320.19 272.24 250.16 167.19"/><polyline class="cls-3" points="250.16 9.3 250.16 3.3 253.49 8.29"/><polyline class="cls-4" points="260.19 18.36 320.19 108.36 320.19 260.2"/><polyline class="cls-3" points="320.19 266.24 320.19 272.24 316.87 267.25"/><polyline class="cls-4" points="310.16 257.19 250.16 167.19 250.16 15.35"/><polygon class="cls-1" points="233 156.19 233 39.19 283 114.19 283 231.19 233 156.19"/><polygon class="cls-1" points="199 155.19 199 38.19 249 113.19 249 230.19 199 155.19"/><polygon class="cls-1" points="167 157.19 167 40.19 217 115.19 217 232.19 167 157.19"/><polygon class="cls-1" points="134 156.19 134 39.19 184 114.19 184 231.19 134 156.19"/><polygon class="cls-1" points="101 156.19 101 39.19 151 114.19 151 231.19 101 156.19"/><polygon class="cls-1" points="67 155.19 67 38.19 117 113.19 117 230.19 67 155.19"/><polygon class="cls-1" points="34 154.19 34 37.19 84 112.19 84 229.19 34 154.19"/><polygon class="cls-1" points="1 155.19 1 38.19 51 113.19 51 230.19 1 155.19"/></g></g></svg>